<?xml version="1.0" encoding="utf-8"?>
<!-- Generator: Adobe Illustrator 25.4.1, SVG Export Plug-In . SVG Version: 6.00 Build 0)  -->
<svg version="1.1" id="Calque_1" xmlns="http://www.w3.org/2000/svg" xmlns:xlink="http://www.w3.org/1999/xlink" x="0px" y="0px"
	 viewBox="0 0 433.9 104.3" style="enable-background:new 0 0 433.9 104.3;" xml:space="preserve">
<style type="text/css">
	.st0{fill:#438DBF;}
</style>
<path class="st0" d="M58.1,64.8c-0.7-2.5-1.5-5.6-2.5-9.5s-1.6-6.7-1.9-8.4c-0.3,1.6-0.8,4.1-1.6,7.7s-2.6,10.7-5.4,21.2H61
	L58.1,64.8z M64.8,90.8H42.9l-3.3,12.4h28.5L64.8,90.8z M168.5,68.6c-0.1-6.4,1.2-12.8,4-18.6c-4-3.8-9-6.4-14.4-7.6
	c-0.4-18.1-15.3-32.5-33.4-32.1c-5.7,0.1-11.2,1.7-16.1,4.6C91.1-3.5,62.2-4.3,43.8,13c-5.8,5.5-10,12.4-12.4,20
	c-17.7,2-31,17-31,34.8c0,13.7,7.9,26.1,20.2,31.9l20.8-64h24.3l22.2,67.4h6.4V51.2h18v51.9h12.6V51.2h13.4l2.8,8.3h0.9
	c1.5-2.7,3.6-5,6.3-6.7c2.4-1.6,5.2-2.5,8.1-2.6c1.5,0,3,0.1,4.5,0.4l1,0.2l-1.6,17c-2-0.4-4.1-0.6-6.1-0.5c-3.9,0-6.8,0.9-8.6,2.7
	s-2.7,4.4-2.7,7.8v25.4h8.6c9,0,17.5-3.9,23.4-10.7C170.6,86.5,168.5,78.6,168.5,68.6L168.5,68.6z M103.5,46.1
	c-6.4,0-9.5-2.6-9.5-7.9c0-2.7,0.8-4.7,2.3-6s3.9-2,7.3-2c3.3,0,5.8,0.7,7.3,2c1.6,1.6,2.5,3.8,2.3,6
	C113.1,43.5,109.9,46.1,103.5,46.1z M58.1,64.8c-0.7-2.5-1.5-5.6-2.5-9.5s-1.6-6.7-1.9-8.4c-0.3,1.6-0.8,4.1-1.6,7.7
	s-2.6,10.7-5.4,21.2H61L58.1,64.8z"/>
<path class="st0" d="M202.8,88.6c-10.1,0-15.1-6.6-15.1-19.9c0-6.4,1.2-11.4,3.7-15c2.3-3.5,6.2-5.6,10.4-5.4c2.8,0,5.5,0.4,8.2,1.2
	c2.6,0.8,5.2,1.8,7.6,3l5.7-14.6c-6.7-3.2-14-4.9-21.3-4.9c-6.2-0.1-12.4,1.4-17.8,4.4c-5,2.9-9.1,7.2-11.6,12.5l-0.1,0.2
	c6.2,5.8,9.8,13.9,9.8,22.4c0,7.3-2.6,14.4-7.4,20c0.6,0.8,1.3,1.6,2,2.4c5.5,6,13.5,9,23.9,9c6.7,0.1,13.3-1.2,19.5-3.8V84.3
	c-2.8,1.2-5.7,2.2-8.6,3.1C208.8,88.2,205.8,88.6,202.8,88.6z"/>
<path class="st0" d="M274.6,53.6c-3.7-3.4-9-5.1-15.9-5.1c-9.5,0-17.3,1.6-23.6,4.8l5.4,12.2c6-2.7,10.9-4,14.8-4
	c4.3,0,6.5,2.2,6.5,6.6v0.8l-8.9,0.3c-7.5,0.3-13.2,1.9-17.2,4.7s-5.9,7-5.9,12.7c0,5.5,1.4,9.7,4.3,12.7c2.9,3,6.9,4.5,11.9,4.5
	c3.4,0.1,6.8-0.4,10-1.7c3-1.5,5.6-3.6,7.6-6.3h0.4l3.5,7.1h12.8v-35C280.2,61.8,278.3,57,274.6,53.6z M261.9,83.2
	c0.1,2.1-0.8,4.1-2.4,5.5s-3.6,2.2-5.7,2.1c-3.5,0-5.2-1.6-5.2-4.9c0-4.2,3-6.5,9.1-6.7l4.2-0.2L261.9,83.2z"/>
<path class="st0" d="M329.5,48.9c-1.5-0.3-3-0.4-4.6-0.4c-3,0.1-5.8,1-8.3,2.6c-2.7,1.7-4.9,4.1-6.4,6.9h-0.9l-2.9-8.5h-13.7v53.4
	h18.4V76.6c0-3.5,0.9-6.1,2.7-7.9s4.7-2.8,8.8-2.8c2.1-0.1,4.2,0.1,6.3,0.6l1.6-17.4L329.5,48.9z"/>
<path class="st0" d="M364.2,89.3c-3.3,0-5-1.7-5-5.2V63.3h13.1V49.5h-13.1V38.8h-12.1L342.4,50l-8.2,5.8v7.5h6.5v22
	c0,6.3,1.4,11,4.1,14s7.2,4.6,13.4,4.5c2.6,0,5.3-0.2,7.9-0.7c2.4-0.5,4.8-1.3,7.1-2.3V87.4C370.2,88.5,367.2,89.2,364.2,89.3z"/>
<path class="st0" d="M430.1,61.5c-2.1-4.1-5.3-7.4-9.3-9.6c-4.3-2.3-9.1-3.4-13.9-3.4c-8.5,0-15.1,2.4-19.8,7.2s-7,11.6-7,20.3
	c0,8.5,2.4,15.3,7.2,20.3c4.8,5,11.2,7.5,19.3,7.5c8.5,0,15-2.4,19.7-7.3s7-11.7,7-20.4C433.5,71,432.4,66,430.1,61.5z M412.9,86.6
	c-1.1,2.3-3.5,3.8-6.1,3.6c-2.6,0.2-5-1.3-6.2-3.6c-1.2-2.4-1.8-5.9-1.8-10.5s0.6-8,1.8-10.4c2-3.4,6.4-4.5,9.7-2.5
	c1,0.6,1.9,1.5,2.5,2.5c1.2,2.3,1.8,5.8,1.8,10.3C414.7,80.6,414.1,84.1,412.9,86.6z"/>
</svg>
